Coordinates
version=1
nRows=19
nColumns=36
inDegrees=yes

Units are S.I. units (second, meters, Newtons, ...)
If the header above contains a line with 'inDegrees', this indicates whether rotational values are in degrees (yes) or radians (no).

endheader
time	pelvis_tilt	pelvis_list	pelvis_rotation	pelvis_tx	pelvis_ty	pelvis_tz	hip_flexion_r	hip_adduction_r	hip_rotation_r	knee_angle_r	knee_angle_r_beta	ankle_angle_r	subtalar_angle_r	mtp_angle_r	hip_flexion_l	hip_adduction_l	hip_rotation_l	knee_angle_l	knee_angle_l_beta	ankle_angle_l	subtalar_angle_l	mtp_angle_l	lumbar_extension	lumbar_bending	lumbar_rotation	arm_flex_r	arm_add_r	arm_rot_r	elbow_flex_r	pro_sup_r	arm_flex_l	arm_add_l	arm_rot_l	elbow_flex_l	pro_sup_l
      1.27916670	    -16.15886405	     -1.56826515	     -2.03871758	     -0.97714976	      1.22066118	     -0.04514154	     25.46566344	      5.57581259	      2.69514240	     17.92653145	      0.31287700	     11.16699784	    -15.66976357	     -7.49999987	     28.39107985	     -5.19037335	     -0.93185325	     26.15882366	      0.45655760	     18.09841536	    -12.55713830	     -7.49999987	     -1.58435570	     -1.50229674	      5.86991305	      0.98328041	    -12.40560215	     -0.45142265	     18.79503661	     76.34248613	     -3.55299279	    -10.71489273	     -1.44050744	     18.23819735	     73.56328375
      1.28333330	    -16.16634846	     -1.59206773	     -2.01895737	     -0.98312499	      1.22130026	     -0.04060168	     25.56831663	      5.67365747	      2.70354402	     17.84479367	      0.31145040	     11.23206746	    -15.71503531	     -7.49999987	     28.54500662	     -5.21743017	     -0.82506618	     26.12271259	      0.45592734	     18.08118806	    -12.48211062	     -7.49999987	     -1.91068946	     -1.57760681	      5.92695876	      0.68179088	    -12.43528878	     -0.46433432	     18.65379433	     76.32828217	     -3.99969747	    -10.92201865	     -1.47099674	     17.96454158	     73.55511719
      1.28750000	    -16.97118974	     -1.80086466	     -1.79482837	     -0.98398900	      1.21956603	     -0.04044185	     26.42319044	      6.04032291	      2.91307504	     17.50848785	      0.30558076	     10.90293178	    -16.40888123	     -7.49999987	     29.85651146	     -5.49425564	     -0.71576978	     26.62883335	      0.46476082	     18.54836779	    -11.45837100	     -7.49999987	     -0.60476198	     -1.36080312	      5.89741321	      0.13755142	    -12.32448653	     -0.59461411	     18.01430650	     74.80665210	     -4.50928742	    -11.32254197	     -1.18246116	     15.92805884	     72.86059590
      1.29166670	    -16.89162713	     -1.99924791	     -1.59434863	     -0.97634138	      1.21966105	     -0.04599390	     26.10527653	      6.17796715	      2.85763543	     17.07511647	      0.29801700	     10.79615851	    -16.22039611	     -7.49999987	     29.86865663	     -5.61911630	     -0.54987097	     26.74124533	      0.46672278	     18.57747324	    -11.16234222	     -7.49999987	     -0.51861848	     -1.07417592	      5.79854204	     -0.58473579	    -12.46770099	     -0.64812029	     17.61715022	     74.61716107	     -5.39045658	    -11.49872790	     -1.16437730	     15.04928834	     72.78700509
      1.29583330	    -17.15156277	     -2.15017275	     -1.59945571	     -0.99030216	      1.22286335	     -0.04522713	     26.62679772	      6.34547825	      2.77990956	     17.05354705	      0.29764055	     10.80199746	    -16.09415363	     -7.49999987	     30.72705199	     -5.75266043	     -0.46979547	     27.32621767	      0.47693247	     18.66756827	    -11.06606946	     -7.49999987	     -0.58287425	     -0.83560293	      5.91916701	     -0.80153783	    -12.52533644	     -0.41093875	     16.82812249	     74.26436773	     -5.43448475	    -11.71392956	     -1.02189007	     13.82347778	     72.57078399
      1.30000000	    -17.33303808	     -2.16098507	     -1.45231326	     -0.98914605	      1.22219507	     -0.04578258	     27.08027146	      6.29410658	      2.83397016	     17.20942183	      0.30036107	     10.73427394	    -16.27145396	     -7.49999987	     31.39166086	     -5.67689626	     -0.36491327	     27.87285879	      0.48647316	     18.51917431	    -11.00342155	     -7.49999987	     -0.61291661	     -0.77389463	      5.71045465	     -1.43968586	    -12.54073117	     -0.33015924	     16.24637663	     73.54071362	     -5.82908281	    -11.96759575	     -1.01817637	     13.04437985	     71.91392511
      1.30416670	    -17.71112947	     -2.09649179	     -1.33206195	     -0.99004450	      1.22481200	     -0.04560818	     27.73259034	      6.17493497	      2.69781982	     17.29810614	      0.30190891	     10.40830568	    -16.14969957	     -7.49999987	     32.11617882	     -5.57099476	     -0.42305329	     28.11536999	      0.49070578	     18.35349440	    -10.77818666	     -7.49999987	     -0.37569650	     -0.78350119	      5.72626941	     -2.04117158	    -12.53466782	      0.34992474	     14.84732206	     72.29753547	     -6.00936179	    -12.19623360	     -0.82079553	     12.20341290	     70.69398331
      1.30833330	    -17.94865649	     -2.16910901	     -1.19127114	     -0.98896442	      1.21633051	     -0.04585167	     28.26760764	      6.20640129	      2.71947418	     17.56588268	      0.30658249	     10.28417113	    -16.37035645	     -7.49999987	     32.71164747	     -5.62237265	     -0.29519010	     28.58489705	      0.49890057	     18.30369038	    -10.83791003	     -7.49999987	     -0.05903560	     -0.68820951	      5.41702895	     -3.03964639	    -12.46749003	      0.96675800	     14.19113545	     71.67523336	     -6.84609104	    -12.43429069	     -0.76083007	     11.72944334	     69.94357142
      1.31250000	    -18.13997489	     -2.12931363	     -0.95589792	     -0.98993356	      1.22345178	     -0.04582956	     28.60025601	      6.07987465	      2.71753988	     17.66503276	      0.30831298	      9.84435714	    -16.58526893	     -7.49999987	     33.00824895	     -5.58117395	     -0.51891220	     28.53210295	      0.49797914	     18.57531997	     -9.90070372	     -7.49999987	      0.21184014	     -0.69205821	      5.04507349	     -3.56156018	    -12.72768902	      6.33779059	     12.84952008	     70.86500976	     -7.11264704	    -12.90270068	      2.34350749	     10.52038469	     68.03375389
      1.31666670	    -18.21063273	     -2.28271760	     -0.67775154	     -0.98867036	      1.21533705	     -0.04616927	     28.83757210	      6.13314491	      2.66138185	     17.87040054	      0.31189733	      9.92919788	    -16.83039776	     -7.49999987	     33.37416068	     -5.63388101	     -0.41674089	     28.85324964	      0.50358421	     18.59174676	     -9.69850672	     -7.49999987	      0.23494527	     -0.50329771	      4.76283159	     -4.64499207	    -12.71942768	      6.65938134	     12.66827950	     69.65479515	     -7.82140598	    -13.16333931	      2.33408909	     10.83782563	     66.85133892
      1.32083330	    -17.96381008	     -2.31705748	     -0.37800021	     -0.99000984	      1.21925767	     -0.04647485	     28.81341028	      6.06180309	      2.56257085	     18.28940772	      0.31921038	      9.89338345	    -16.99293599	     -7.49999987	     33.17322028	     -5.63930497	     -0.54270676	     28.88653275	      0.50416511	     18.55168183	     -9.44230284	     -7.49999987	     -0.26275393	     -0.51594291	      4.37549803	     -4.89904501	    -13.40396137	     18.19554017	     12.22348421	     55.52498304	     -7.78073304	    -14.04977510	     13.25250085	     10.21034252	     51.36913364
      1.32500000	    -17.79486057	     -2.33173090	     -0.17687487	     -0.98869303	      1.21920742	     -0.04706158	     28.79372753	      6.00791765	      2.57444956	     18.61712841	      0.32493019	      9.80034063	    -17.34302133	     -7.49999987	     33.10366978	     -5.59536065	     -0.58396542	     28.99510624	      0.50606007	     18.64894144	     -9.10781997	     -7.49999987	     -0.42010700	     -0.54460740	      4.14127245	     -5.77525901	    -13.17551047	     18.70091150	     11.88155349	     56.44298150	     -8.24804388	    -14.45310195	     12.75298491	     10.09376166	     52.57251068
      1.32916670	    -17.72730104	     -2.26166899	     -0.10997863	     -0.98991370	      1.21451560	     -0.04686307	     29.25673303	      5.95015334	      2.58277668	     19.62837127	      0.34257971	     10.21944915	    -17.39199416	     -7.49999987	     33.21075349	     -5.54813613	     -0.74251220	     29.33985083	      0.51207700	     18.79686619	     -9.06441355	     -7.49999987	     -0.43210508	     -0.76688447	      4.12623207	     -6.53021087	    -13.14370627	     19.25888352	     11.65894419	     56.42333848	     -8.85412982	    -15.08190116	     12.11693735	      9.84832212	     52.02757554
      1.33333330	    -17.38112975	     -2.23733920	      0.02626383	     -0.98243517	      1.21482188	     -0.05240442	     29.38540018	      5.86620830	      2.82096935	     20.89797462	      0.36473846	     10.28014181	    -18.19687423	     -7.49999987	     32.99245509	     -5.44994251	     -0.81455119	     29.94691706	      0.52267230	     19.06095826	     -9.15401831	     -7.49999987	     -0.51908603	     -0.68545120	      4.15012165	     -7.50353115	    -13.51003331	     19.81138055	     11.45252724	     56.43097358	     -9.64273621	    -15.42104203	     12.14266586	      9.58675665	     51.77945325
      1.33750000	    -17.59048611	     -1.92827053	     -0.06632233	     -0.98369703	      1.21787548	     -0.05205927	     30.00328564	      5.63971059	      3.45881988	     21.92488078	      0.38266136	     10.05096339	    -19.36888962	     -7.49999987	     33.23333841	     -5.08312482	     -0.94424434	     30.19653774	      0.52702901	     19.03681207	     -9.31955188	     -7.49999987	      0.10585937	     -0.89835931	      4.31384847	     -8.57996755	    -13.88015883	     21.92582581	     11.10778691	     56.41193570	    -10.47535846	    -15.80789549	     12.06285923	      9.07859626	     50.80532747
      1.34166670	    -17.37056948	     -2.00390303	      0.13894340	     -0.98261072	      1.21389093	     -0.05276967	     30.06812727	      5.59077012	      3.50219087	     22.79541295	      0.39785501	     10.41249362	    -19.73541063	     -7.49999987	     33.12978684	     -4.95896581	     -0.68579693	     30.63686393	      0.53471415	     19.24190646	     -9.88068985	     -7.49999987	      0.44002720	     -0.65613478	      3.87375692	     -9.96484434	    -13.86209539	     22.61370407	     10.25905797	     56.11215453	    -11.53177882	    -16.06503780	     11.36707995	      8.53696313	     50.15917527
      1.34583330	    -17.05710322	     -1.78515550	      0.25098254	     -0.98428986	      1.21738665	     -0.05243760	     30.14176198	      5.42628190	      4.05858929	     23.77782265	      0.41500129	     10.17395511	    -20.94551873	     -7.49999987	     32.79517553	     -4.61544876	     -0.67385876	     30.80508080	      0.53765009	     19.18862402	    -10.15821876	     -7.49999987	      0.26910965	     -0.89011555	      3.61548435	    -10.88773134	    -13.92944467	     24.12778556	      9.93196940	     55.91013409	    -12.15881461	    -16.50944494	     11.33276974	      8.25535884	     49.48684623
      1.35000000	    -17.38822676	     -1.59145310	      0.36683535	     -0.98993625	      1.21291092	     -0.05751672	     31.12991141	      5.19764289	      4.49347357	     24.90064153	      0.43459818	     10.26774254	    -21.92330559	     -7.49999987	     33.36987680	     -4.13759104	     -0.37792847	     31.23133192	      0.54508957	     19.21381843	    -10.94095139	     -7.49999987	      0.61239797	     -0.74488686	      3.13744359	    -11.23797508	    -15.14378759	     38.42567015	      9.72784795	     40.15833419	    -12.94160163	    -16.79532467	     15.14387232	      8.08254220	     40.09224889
      1.35416670	    -17.26357381	     -1.55820411	      0.63091641	     -0.97778187	      1.21257728	     -0.05791594	     31.08941683	      5.01305084	      4.72470855	     25.50135001	      0.44508252	     10.11053725	    -22.83274311	     -7.49999987	     33.27296875	     -3.72433060	      0.19121846	     31.51190461	      0.54998649	     19.19051501	    -11.47273691	     -7.49999987	      0.51944707	     -0.34658368	      2.94532132	    -12.17480203	    -15.57547747	     38.54646796	      9.32209170	     40.75610411	    -13.49408034	    -16.83134215	     14.44370496	      7.79852395	     40.71964048
